<svg width="120px" height="120px" viewBox="-2.16 -2.16 28.32 28.32" fill="none" xmlns="http://www.w3.org/2000/svg" stroke="#000000" stroke-width="0.00024000000000000003"><g id="SVGRepo_bgCarrier" stroke-width="0" transform="translate(0,0), scale(1)"><path transform="translate(-2.16, -2.16), scale(0.885)" d="M16,29.48827383170525C18.651651838862,30.134348655739178,21.646186200317157,29.83376715991005,23.94176718952264,28.35763096199704C26.237164101175722,26.88161313217455,27.375967391590084,24.18139588438236,28.26520576914024,21.601331791404753C29.093220118934816,19.198905011016855,29.40657608845442,16.630780349339236,28.83704752345183,14.1543112071457C28.294606654631814,11.795626927470769,26.49616910775025,10.082207466305121,25.15305518658885,8.068832532981896C23.58915137267643,5.724485797049673,22.825811937098596,2.605761389541707,20.29970797425148,1.3565394211413846C17.683292506318093,0.06265614116704787,14.510592774648844,0.5679934953017876,11.720752324781142,1.4262208004606283C8.953337509273016,2.2775493986544126,6.493090743672806,3.932358446148202,4.6547921507180785,6.169321437870938C2.8461328079752026,8.370217434775515,1.8804971303173652,11.091941394660743,1.4619971987200842,13.909750759137829C1.042051338571297,16.737295730971518,0.49395697501158375,20.028074138503868,2.263009909096482,22.273473169768398C4.032519309987352,24.51945157890466,7.677229557101509,23.682037554475666,10.208627097599944,25.011552137361427C12.413439224102486,26.169540887769752,13.580376923080172,28.898732802698856,16,29.48827383170525" fill="#E9FD97" strokewidth="0"></path></g><g id="SVGRepo_tracerCarrier" stroke-linecap="round" stroke-linejoin="round" stroke="#E9FD97" stroke-width="2.64"> <path fill-rule="evenodd" clip-rule="evenodd" d="M1 2C1 1.44772 1.44772 1 2 1H3.01472C4.87123 1 6.65171 1.7375 7.96446 3.05025L10.7457 5.83149L17.9212 3.041C19.03 2.60983 20.2887 2.87451 21.1299 3.71569L22.7071 5.29289C22.9283 5.51412 23.0333 5.82613 22.9907 6.13608C22.9481 6.44603 22.7629 6.71819 22.4903 6.87158L15.5633 10.768L17.8955 13.4334L20.1586 13.1101C20.9108 13.0026 21.6698 13.2556 22.2071 13.7929C23.1499 14.7357 23.1499 16.2643 22.2071 17.2071L17.2071 22.2071C16.2643 23.1499 14.7357 23.1499 13.7929 22.2071C13.2556 21.6698 13.0026 20.9108 13.1101 20.1586L13.4334 17.8955L10.768 15.5633L6.87157 22.4903C6.71819 22.7629 6.44603 22.9481 6.13608 22.9907C5.82613 23.0333 5.51412 22.9283 5.29289 22.7071L3.7157 21.1299C2.87451 20.2887 2.60983 19.03 3.041 17.9213L5.83149 10.7457L3.05025 7.96447C1.7375 6.65171 1 4.87123 1 3.01472V2ZM3 3V3.01472C3 4.3408 3.52678 5.61257 4.46447 6.55025L7.70711 9.79289C7.9875 10.0733 8.07573 10.4929 7.932 10.8624L4.90501 18.6461C4.76129 19.0157 4.84951 19.4353 5.12991 19.7157L5.77482 20.3606L9.62843 13.5098C9.77608 13.2473 10.0342 13.0653 10.331 13.0144C10.6279 12.9635 10.9318 13.0491 11.1585 13.2475L15.1585 16.7474C15.4131 16.9702 15.5378 17.3065 15.4899 17.6414L15.0899 20.4414C15.0715 20.5705 15.1149 20.7007 15.2071 20.7929C15.3689 20.9547 15.6311 20.9547 15.7929 20.7929L20.7929 15.7929C20.9547 15.6311 20.9547 15.3689 20.7929 15.2071C20.7007 15.1149 20.5705 15.0715 20.4414 15.0899L17.6414 15.4899C17.3065 15.5378 16.9702 15.4131 16.7474 15.1585L13.2474 11.1585C13.0491 10.9318 12.9635 10.6279 13.0144 10.331C13.0653 10.0342 13.2472 9.77608 13.5097 9.62842L20.3606 5.77481L19.7157 5.12991C19.4353 4.84951 19.0157 4.76129 18.6461 4.90501L10.8624 7.932C10.4929 8.07573 10.0733 7.9875 9.79289 7.70711L6.55025 4.46446C5.61257 3.52678 4.3408 3 3.01472 3H3Z" fill="#393e29"></path> </g><g id="SVGRepo_iconCarrier"> <path fill-rule="evenodd" clip-rule="evenodd" d="M1 2C1 1.44772 1.44772 1 2 1H3.01472C4.87123 1 6.65171 1.7375 7.96446 3.05025L10.7457 5.83149L17.9212 3.041C19.03 2.60983 20.2887 2.87451 21.1299 3.71569L22.7071 5.29289C22.9283 5.51412 23.0333 5.82613 22.9907 6.13608C22.9481 6.44603 22.7629 6.71819 22.4903 6.87158L15.5633 10.768L17.8955 13.4334L20.1586 13.1101C20.9108 13.0026 21.6698 13.2556 22.2071 13.7929C23.1499 14.7357 23.1499 16.2643 22.2071 17.2071L17.2071 22.2071C16.2643 23.1499 14.7357 23.1499 13.7929 22.2071C13.2556 21.6698 13.0026 20.9108 13.1101 20.1586L13.4334 17.8955L10.768 15.5633L6.87157 22.4903C6.71819 22.7629 6.44603 22.9481 6.13608 22.9907C5.82613 23.0333 5.51412 22.9283 5.29289 22.7071L3.7157 21.1299C2.87451 20.2887 2.60983 19.03 3.041 17.9213L5.83149 10.7457L3.05025 7.96447C1.7375 6.65171 1 4.87123 1 3.01472V2ZM3 3V3.01472C3 4.3408 3.52678 5.61257 4.46447 6.55025L7.70711 9.79289C7.9875 10.0733 8.07573 10.4929 7.932 10.8624L4.90501 18.6461C4.76129 19.0157 4.84951 19.4353 5.12991 19.7157L5.77482 20.3606L9.62843 13.5098C9.77608 13.2473 10.0342 13.0653 10.331 13.0144C10.6279 12.9635 10.9318 13.0491 11.1585 13.2475L15.1585 16.7474C15.4131 16.9702 15.5378 17.3065 15.4899 17.6414L15.0899 20.4414C15.0715 20.5705 15.1149 20.7007 15.2071 20.7929C15.3689 20.9547 15.6311 20.9547 15.7929 20.7929L20.7929 15.7929C20.9547 15.6311 20.9547 15.3689 20.7929 15.2071C20.7007 15.1149 20.5705 15.0715 20.4414 15.0899L17.6414 15.4899C17.3065 15.5378 16.9702 15.4131 16.7474 15.1585L13.2474 11.1585C13.0491 10.9318 12.9635 10.6279 13.0144 10.331C13.0653 10.0342 13.2472 9.77608 13.5097 9.62842L20.3606 5.77481L19.7157 5.12991C19.4353 4.84951 19.0157 4.76129 18.6461 4.90501L10.8624 7.932C10.4929 8.07573 10.0733 7.9875 9.79289 7.70711L6.55025 4.46446C5.61257 3.52678 4.3408 3 3.01472 3H3Z" fill="#393e29"></path> </g></svg>