<svg xmlns="http://www.w3.org/2000/svg" width="800" height="800" viewBox="0 0 800 800">
<g>
<path d="M 11.84 358.41 C9.15,357.57 8.85,353.63 10.52,340.71 C22.64,246.67 70.88,155.91 141.28,94.69 C182.38,58.94 236.52,28.67 283.50,15.15 C301.30,10.04 319.13,5.58 330.00,3.54 C332.01,3.16 334.72,2.81 338.00,2.48 C337.16,2.77 337.10,3.09 337.61,3.46 C340.17,5.33 338.82,8.29 334.24,10.81 C331.86,12.12 330.00,13.88 330.01,14.82 C330.01,15.75 331.81,17.53 334.01,18.78 C338.59,21.40 339.23,24.44 336.13,28.85 C332.51,33.99 330.00,39.96 330.00,43.43 C330.00,46.34 330.53,47.22 333.04,48.52 C335.83,49.96 336.02,50.39 335.41,53.79 C334.53,58.63 334.32,58.94 330.63,60.65 C328.18,61.79 328.05,61.98 330.00,61.53 C330.74,61.35 333.07,60.95 336.14,60.44 C284.56,70.01 227.21,96.68 187.50,130.01 C164.77,149.09 139.87,175.54 125.86,195.50 C106.18,223.54 90.45,255.41 80.56,287.31 C75.37,304.02 70.31,324.73 68.41,337.00 C67.51,342.77 66.25,349.52 65.61,351.99 C64.52,356.15 64.15,356.53 60.47,357.18 C55.51,358.07 14.10,359.11 11.84,358.41 ZM 443.53 799.16 C449.41,798.74 452.00,798.22 452.00,797.47 C452.00,795.46 454.51,793.98 458.63,793.56 C464.53,792.95 465.83,792.14 468.65,787.33 L 471.25 782.89 L 467.61 774.80 L 470.02 772.99 C472.31,771.26 472.37,770.94 471.24,766.34 C470.60,763.68 469.80,759.70 469.48,757.50 C469.15,755.30 468.70,752.59 468.48,751.47 C468.25,750.35 466.01,747.98 463.49,746.20 C460.79,744.30 459.19,742.51 459.59,741.85 C460.08,741.07 459.26,740.91 456.89,741.33 C444.79,743.44 409.02,744.15 381.23,743.38 C387.02,743.44 394.09,743.45 403.00,743.44 C445.16,743.37 454.29,742.60 475.00,737.32 C508.27,728.84 536.05,718.24 560.50,704.70 C573.81,697.33 598.96,680.39 611.50,670.35 C633.25,652.93 659.22,624.92 677.66,599.00 C698.39,569.84 717.72,525.22 726.49,486.26 C728.54,477.17 733.95,445.77 733.99,442.75 C734.00,442.34 746.83,442.00 762.50,442.00 C790.17,442.00 791.00,442.06 791.00,443.97 C791.00,448.70 787.54,470.21 783.51,490.54 C772.71,545.01 748.61,598.94 715.60,642.50 C700.45,662.49 675.41,689.34 654.50,708.02 C619.75,739.07 574.51,764.86 523.89,782.49 C499.66,790.93 468.15,797.65 446.50,799.01 C445.62,799.06 444.63,799.12 443.53,799.16 ZM 116.25 358.05 C113.32,356.77 113.26,351.41 116.00,337.00 C124.42,292.67 149.20,239.41 176.01,208.00 C196.84,183.60 226.57,157.94 251.81,142.56 C283.58,123.21 322.47,109.69 357.50,105.82 C359.15,105.64 361.19,105.48 363.52,105.33 C362.67,105.47 362.28,105.61 362.43,105.76 C362.73,106.06 361.24,108.19 359.12,110.48 C353.60,116.47 350.73,124.62 350.65,134.50 C350.57,145.31 351.13,147.50 354.97,151.47 C357.17,153.74 358.05,155.43 357.62,156.55 C357.07,157.97 357.48,158.15 360.24,157.68 C361.63,157.45 368.07,156.92 375.87,156.38 C360.64,157.62 347.03,159.74 336.83,162.49 C327.65,164.97 306.18,173.38 293.91,179.31 C239.86,205.44 198.90,250.83 178.70,307.00 C173.09,322.58 168.35,339.21 166.74,348.96 C165.51,356.34 165.46,356.43 162.00,357.22 C156.42,358.48 118.80,359.16 116.25,358.05 ZM 445.38 693.72 C446.41,693.38 446.34,692.92 445.78,692.03 C445.01,690.79 445.01,689.46 445.78,687.40 C450.25,675.31 451.18,671.80 451.93,664.16 C452.39,659.40 453.07,654.77 453.44,653.88 C453.97,652.60 452.77,651.72 447.83,649.74 C440.94,646.99 438.52,644.59 441.00,642.96 C442.02,642.29 441.06,642.22 438.00,642.74 C434.58,643.32 421.81,643.55 407.80,643.50 C433.07,643.49 436.75,643.25 447.00,641.18 C467.28,637.08 494.95,627.08 512.66,617.44 C555.72,593.99 590.02,558.45 611.03,515.50 C620.13,496.89 624.10,485.76 629.83,462.76 C634.23,445.11 634.81,443.51 637.06,442.88 C638.40,442.51 648.96,442.15 660.53,442.10 C684.57,441.99 686.00,442.36 686.00,448.72 C686.00,460.80 673.06,505.51 663.13,527.74 C641.63,575.88 601.87,622.10 556.00,652.27 C533.68,666.95 497.88,682.42 469.67,689.58 C463.35,691.19 454.89,692.59 445.38,693.72 ZM 212.25 358.97 C209.49,357.86 209.28,353.87 211.56,345.93 C221.82,310.26 246.50,271.51 272.87,249.65 C294.76,231.50 319.26,218.19 345.50,210.18 C350.50,208.66 356.16,207.36 362.26,206.32 L 364.02 209.35 C366.68,213.94 368.00,222.77 368.00,236.10 L 368.00 247.84 L 375.75 250.34 C381.84,252.32 385.02,252.81 397.24,253.18 C377.18,252.80 369.43,253.78 356.85,258.00 C313.73,272.44 280.24,303.65 264.41,344.13 C261.74,350.95 258.97,356.48 257.95,357.03 C255.91,358.12 232.10,360.01 221.50,359.93 C217.65,359.90 213.49,359.47 212.25,358.97 ZM 431.79 594.64 C432.42,594.29 432.28,593.82 431.74,592.96 C430.81,591.47 431.24,590.48 434.26,587.14 C437.59,583.45 437.81,582.84 436.91,579.81 C436.38,577.99 435.32,572.22 434.56,567.00 C433.01,556.30 432.15,553.74 428.76,549.62 L 426.38 546.74 L 415.88 546.64 C418.39,546.54 420.63,546.40 422.50,546.21 C440.28,544.37 464.25,534.71 483.50,521.63 C495.13,513.73 511.81,497.01 519.86,485.18 C526.91,474.82 533.33,462.38 537.55,450.89 L 540.35 443.28 L 549.92 442.64 C562.32,441.82 581.86,441.82 585.96,442.64 C587.73,443.00 589.41,443.90 589.70,444.66 C591.07,448.23 577.78,483.37 569.52,498.00 C553.17,526.96 524.86,555.48 496.14,571.92 C477.95,582.33 455.31,590.57 435.18,594.11 C434.13,594.30 433.00,594.47 431.79,594.64 ZM 389.22 441.42 C381.30,439.69 375.69,436.41 368.04,429.04 C359.31,420.63 355.83,412.77 355.22,400.11 C354.44,383.92 358.32,373.58 368.90,363.69 C377.18,355.94 387.49,352.00 399.47,352.00 C420.85,352.00 437.73,364.44 444.04,384.86 C446.50,392.84 446.51,397.69 444.07,407.24 C440.25,422.15 434.20,429.83 421.00,436.49 C408.20,442.96 401.18,444.04 389.22,441.42 ZM 362.52 0.92 C379.77,0.20 400.33,-0.11 417.64,0.10 C410.41,0.09 401.91,0.18 391.50,0.35 C379.58,0.55 370.05,0.73 362.52,0.92 ZM 474.56 167.08 C451.41,159.49 426.86,155.55 401.31,155.37 C427.13,155.46 451.27,159.31 474.56,167.08 ZM 370.15 205.14 C379.53,203.94 389.61,203.30 399.61,203.28 C395.08,203.36 390.36,203.58 385.37,203.93 C379.65,204.34 374.03,204.79 370.15,205.14 ZM 461.55 213.80 C455.74,211.73 450.22,209.98 444.82,208.55 C465.38,213.78 485.50,222.96 504.12,235.61 C490.88,226.72 475.93,218.94 461.55,213.80 ZM 378.61 595.89 C384.18,596.50 398.42,596.62 410.53,596.35 C398.72,596.84 386.35,596.74 378.61,595.89 ZM 368.72 695.88 C379.24,696.90 397.62,696.95 414.99,696.24 C397.98,697.09 381.04,697.07 368.72,695.88 ZM 465.90 110.55 C479.51,113.75 492.87,118.08 505.95,123.52 C498.80,120.59 491.50,117.98 484.00,115.64 C477.45,113.60 471.56,111.93 465.90,110.55 ZM 426.69 104.95 C432.37,105.17 437.05,105.47 440.00,105.85 C443.55,106.30 447.08,106.83 450.60,107.44 C443.22,106.25 435.57,105.47 426.69,104.95 ZM 236.32 578.22 C225.90,568.25 215.75,557.05 205.74,544.51 C214.93,556.02 225.92,568.08 236.32,578.22 ZM 321.04 631.59 C313.26,628.79 305.49,625.47 297.54,621.57 C289.37,617.57 281.43,613.07 273.70,608.04 C288.79,617.71 305.02,625.79 321.04,631.59 ZM 460.05 3.14 C474.23,5.42 489.31,8.86 504.27,13.16 C493.15,9.98 481.83,7.26 470.56,5.07 C466.76,4.33 463.32,3.69 460.05,3.14 ZM 607.89 274.85 C591.13,251.38 574.95,232.37 558.70,217.12 C575.07,232.40 591.00,251.21 607.89,274.85 ZM 383.41 546.03 C377.61,545.73 373.44,545.30 370.39,544.71 C365.21,543.71 360.05,542.35 354.87,540.60 C360.09,542.35 365.25,543.68 370.39,544.62 C373.52,545.19 378.13,545.67 383.41,546.03 ZM 373.29 642.74 C370.17,642.57 367.66,642.39 366.00,642.19 C358.26,641.23 350.83,639.93 343.57,638.24 C343.71,638.27 343.86,638.31 344.00,638.34 C354.59,640.68 362.73,642.02 373.29,642.74 ZM 509.77 301.36 C514.99,306.09 520.55,310.75 523.82,313.18 C520.51,310.88 516.10,307.11 509.77,301.36 ZM 530.20 257.01 C527.55,254.26 524.63,251.51 521.49,248.80 C522.31,249.49 523.12,250.18 523.93,250.89 C525.71,252.44 527.98,254.67 530.20,257.01 ZM 684.15 208.92 C680.80,204.79 677.04,200.04 673.98,196.00 C675.75,198.34 680.21,204.00 684.15,208.92 ZM 435.50 56.54 C423.03,55.46 408.49,55.05 393.84,55.31 C408.44,55.04 422.97,55.45 435.50,56.54 ZM 372.50 799.32 C377.36,799.52 385.09,799.66 393.69,799.73 C385.31,799.67 377.74,799.54 372.50,799.32 ZM 407.99 253.51 C413.60,253.77 418.72,254.18 423.52,254.80 C418.76,254.20 413.64,253.78 407.99,253.51 Z" fill="rgba(57,62,40,1)"/>
<path d="M 372.50 799.32 C358.68,798.74 338.77,796.91 330.21,795.44 C275.11,785.91 205.64,754.11 161.00,717.97 C144.91,704.95 130.96,691.84 118.96,678.45 C96.39,653.29 83.55,635.23 73.50,614.50 C70.04,607.35 65.81,599.76 64.11,597.63 C61.05,593.78 59.02,588.49 59.01,584.32 C58.99,580.04 65.74,576.00 72.89,576.00 C75.06,576.00 77.57,575.72 78.46,575.38 C80.54,574.58 83.35,569.05 85.53,561.47 C86.47,558.19 87.37,555.35 87.53,555.18 C87.69,555.00 89.09,555.52 90.66,556.35 C94.88,558.56 101.21,565.65 105.53,573.00 C112.45,584.77 125.33,603.29 135.42,616.00 C147.15,630.78 175.58,659.51 189.00,670.17 C237.53,708.70 293.99,733.40 352.05,741.52 C373.28,744.49 439.52,744.37 456.89,741.33 C459.26,740.91 460.08,741.07 459.59,741.85 C459.19,742.51 460.79,744.30 463.49,746.20 C466.01,747.98 468.25,750.35 468.48,751.47 C468.70,752.59 469.15,755.30 469.48,757.50 C469.80,759.70 470.60,763.68 471.24,766.34 C472.37,770.94 472.31,771.26 470.02,772.99 L 467.61 774.80 L 469.43 778.85 L 471.25 782.89 L 468.65 787.33 C465.83,792.14 464.53,792.95 458.63,793.56 C454.51,793.98 452.00,795.46 452.00,797.47 C452.00,798.33 448.61,798.89 440.75,799.34 C430.07,799.96 387.52,799.94 372.50,799.32 ZM 368.72 695.88 C341.66,693.28 307.35,683.01 277.50,668.59 C247.44,654.07 225.30,638.40 201.90,615.06 C178.39,591.60 163.38,570.05 162.23,558.07 C161.59,551.38 163.02,549.42 172.08,544.49 C176.12,542.30 182.33,537.67 185.88,534.21 C189.42,530.75 192.64,528.28 193.03,528.71 C193.43,529.14 199.14,536.26 205.74,544.51 C234.23,580.19 263.84,605.05 297.54,621.57 C320.35,632.76 341.63,639.17 366.00,642.19 C377.51,643.61 430.46,644.02 438.00,642.74 C441.06,642.22 442.02,642.29 441.00,642.96 C438.52,644.59 440.94,646.99 447.83,649.74 C452.77,651.72 453.97,652.60 453.44,653.88 C453.07,654.77 452.39,659.40 451.93,664.16 C451.18,671.80 450.25,675.31 445.78,687.40 C445.01,689.46 445.01,690.79 445.78,692.03 C446.75,693.57 446.25,693.83 441.18,694.39 C420.13,696.73 385.01,697.45 368.72,695.88 ZM 378.61 595.89 C358.27,593.65 329.44,584.04 308.79,572.63 C284.60,559.27 264.77,541.18 255.96,524.42 C250.28,513.63 252.11,510.29 267.89,502.58 C282.32,495.54 282.85,495.67 301.65,510.29 C326.28,529.46 348.14,540.40 370.39,544.71 C376.08,545.82 385.63,546.35 402.44,546.51 L 426.38 546.74 L 428.76 549.62 C432.15,553.74 433.01,556.30 434.56,567.00 C435.32,572.22 436.38,577.99 436.91,579.81 C437.81,582.84 437.59,583.45 434.26,587.14 C431.24,590.48 430.81,591.47 431.74,592.96 C432.75,594.57 432.37,594.82 428.18,595.40 C419.71,596.57 387.68,596.89 378.61,595.89 ZM 526.06 314.69 C523.85,313.48 516.52,307.49 509.77,301.36 C489.40,282.86 478.30,274.68 463.49,267.26 C444.08,257.53 428.31,253.95 402.00,253.31 C385.73,252.91 382.56,252.55 375.75,250.34 L 368.00 247.84 L 368.00 236.10 C368.00,222.77 366.68,213.94 364.02,209.35 L 362.19 206.20 L 365.34 205.66 C367.08,205.37 376.09,204.59 385.37,203.93 C415.09,201.83 435.39,204.46 461.55,213.80 C490.13,224.01 520.96,244.66 536.13,263.74 C542.50,271.76 550.65,285.98 551.60,290.75 C552.89,297.22 541.23,312.98 533.04,315.84 C530.59,316.69 529.36,316.49 526.06,314.69 ZM 607.89 274.85 C573.11,226.16 542.40,197.96 503.50,178.96 C465.95,160.62 427.02,153.18 382.97,155.92 C372.26,156.58 362.03,157.38 360.24,157.68 C357.48,158.15 357.07,157.97 357.62,156.55 C358.05,155.43 357.17,153.74 354.97,151.47 C351.13,147.50 350.57,145.31 350.65,134.50 C350.73,124.62 353.60,116.47 359.12,110.48 C361.24,108.19 362.73,106.06 362.43,105.76 C361.29,104.62 392.34,103.75 412.50,104.34 C442.93,105.25 458.50,107.71 484.00,115.64 C515.81,125.54 544.02,140.54 572.50,162.70 C590.15,176.43 610.20,197.11 619.94,211.63 C625.46,219.86 627.61,228.30 626.71,238.21 C626.27,243.10 625.61,244.82 623.19,247.37 C617.76,253.09 616.00,257.99 616.00,267.40 C616.00,275.73 614.90,281.00 613.17,281.00 C612.68,281.00 610.31,278.23 607.89,274.85 ZM 684.82 209.75 C680.73,204.66 675.85,198.48 673.98,196.00 C658.22,175.22 619.97,136.45 600.89,121.92 C560.02,90.78 500.20,65.72 448.41,58.03 C420.88,53.94 375.96,54.38 345.15,59.03 C338.19,60.08 331.38,61.21 330.00,61.53 C328.05,61.98 328.18,61.79 330.63,60.65 C334.32,58.94 334.53,58.63 335.41,53.79 C336.02,50.39 335.83,49.96 333.04,48.52 C330.53,47.22 330.00,46.34 330.00,43.43 C330.00,39.96 332.51,33.99 336.13,28.85 C339.23,24.44 338.59,21.40 334.01,18.78 C331.81,17.53 330.01,15.75 330.01,14.82 C330.00,13.88 331.86,12.12 334.24,10.81 C338.82,8.29 340.17,5.33 337.61,3.46 C335.20,1.69 345.52,1.10 391.50,0.35 C435.91,-0.37 445.56,0.21 470.56,5.07 C500.59,10.91 530.92,20.50 556.89,32.38 C612.16,57.65 659.56,94.26 693.02,137.50 C701.91,148.99 705.06,155.70 705.73,164.59 C706.24,171.39 706.11,172.09 703.67,174.99 C699.66,179.74 698.50,185.16 698.50,199.07 C698.50,210.83 698.34,211.88 696.00,215.31 C694.62,217.33 693.22,218.99 692.87,218.99 C692.53,219.00 688.90,214.84 684.82,209.75 Z" fill="rgba(152,179,38,1)"/>
</g>
</svg>